<?xml version="1.0" encoding="UTF-8"?>
<svg id="Layer_2" data-name="Layer 2" xmlns="http://www.w3.org/2000/svg" viewBox="0 0 460.9 319.91">
  <defs>
    <style>
      .cls-1 {
        fill: #2f3481;
        stroke-width: 0px;
      }
    </style>
  </defs>
  <g id="Design">
    <g>
      <path class="cls-1" d="M314.22,240.85c-.24-6.14.31-12.32-.56-18.48-.24-1.7-1.24-2.07-2.69-1.46-2.5,1.06-5.01,2.11-7.44,3.32-.37.18-.56,1.27-.42,1.84.6,2.4,1.9,4.77,1.9,7.15,0,2.54-.94,5.18-1.92,7.6-2.28,5.62-6.72,9.49-11.21,13.36-4.09,3.53-8.64,5.7-13.97,6.38-7.96,1.02-13.85-2.47-16.41-10.12-.96-2.88-1.27-5.98-1.9-8.98-.12-.55-.32-1.08-.49-1.62-.59.22-1.28.32-1.75.69-5.75,4.68-11.47,9.38-17.17,14.11-.96.79-1.71,1.84-2.68,2.62-1.67,1.33-3.24,1.12-4.25-.75-2.83-5.25-.33-9.33-.12-14.61.2-4.82-1.99-10.21-3.14-14.86-.11-.46-.43-.88-.74-1.25-.04-.05-.62.22-.85.45-6.41,6.27-12.55,12.85-19.28,18.77-8.86,7.8-18.71,14.17-30.19,17.59-2.92.87-4.3-.08-4.68-3.04-.15-1.2-.53-2.37-.8-3.55-.39,1.14-.89,2.26-1.14,3.43-2.24,10.71-3.95,21.53-6.4,32.19-2.11,9.16-3.69,21.46-11.79,27.26-2.28,1.63-3.31,1.3-4.64-1.1-2.63-4.75-.73-10.18.35-15.07,3.86-17.48,7.53-35,11.3-52.5.39-1.79.88-3.55,1.36-5.32.28-1.03.03-1.37-1.07-1.12-2.33.55-3.83-.64-4.79-2.57-.53-1.08-1.02-1.41-2.33-1.27-5.98.62-11.97,1.01-17.96,1.55-1.89.17-3.8.42-5.64.88-.42.1-.87,1.27-.8,1.89,2.11,19.06,3.68,38.64.63,57.67-1.06,6.62-4.36,12.04-10.1,15.77-2.01,1.31-4.57.73-5.62-1.45-9.24-19.13-18.12-38.07-38.45-47.94-1.41-.68-1.77-.32-2.34,1.01-2.14,4.93-5,10.51-9.57,13.97-.78.59-2.35,1.27-2.79.93-.91-.7-1.64-2.02-1.85-3.18-.56-3.2.4-6.91,1.77-9.81,1.82-3.86,4.04-5.99.94-8.52-2.97-2.42-10.62-2.95-14.35-3.72-14.27-2.95-29.08-3.48-43.59-4.46-3.04-.2-4.39-1.41-4.54-4.5-.08-1.66-.06-3.33-.06-4.99,0-2.15,1.57-2.68,3.23-2.88,21.96-2.72,44.79-6.01,66.92-6.18,1.77-.02,2.57-.53,2.47-2.41-.25-4.48.11-9.04-.67-13.42-1.65-9.33-4.06-19.15-7.32-28.3-3.53-9.9-8.7-17.76-7.86-28.6.21-2.66,3.52-4.93,6.43-5.07,36.58-1.69,55.02,41.21,63.7,69.89.52,1.73,1.28,2.3,2.92,2.15,8.07-.78,16.16-1.66,24.25-2.1,4.37-.24,13.83.64,15.92-4.53,3.03-7.5,7.18-16.57,14.44-20.86,15.01-8.88,32.11,8.46,28.82,23.57-.07.3.07.65.1.97.37-.19.83-.29,1.09-.57,3.39-3.76,6.92-7.42,10.08-11.37,2.31-2.9,4.1-6.21,6.16-9.3.35-.53.88-1.05,1.45-1.31,2.32-1.04,7.1.92,8.14,3.3.17.38.34.9.21,1.24-1.95,4.96-.85,9.83.39,14.69.67,2.63,1.47,5.23,2.17,7.85.43,1.61,1.23,1.8,2.47.79,5.98-4.86,12.44-10.11,18.56-15.18,1.18-.98,2.16-1.91,2.36-3.72.32-2.99,2.11-4.17,5.19-4.29,5.38-.22,10.28,2.08,15.43,3.19,7.35,1.59,14.45-3.05,21.07-5.56,12.28-4.66,17.49,6.92,19.19,16.59.3,1.69.81,1.19,1.54.41.66-.7,1.22-1.5,1.93-2.13,4.23-3.77,10.04-11.41,16.19-11.66,10.72-.42,17.52,7.51,20.54,16.82,3.22,9.94,13.18,9.89,21.92,10.31,11.39.55,22.84.19,34.16-1.23,5.67-.71,11.3-1.68,16.86-2.98,4.61-1.07,10.05-3.66,14.78-1.92,1.22.45,2.55,1.56,3.07,2.72.73,1.63-.88,2.59-2.05,3.48-12.82,9.77-28.57,15.22-44.36,17.78-14.76,2.4-32.93,4.23-46.65-2.84-4.17-2.15-7.63-5.05-9.53-9.41-1.72-3.95-3.28-7.98-4.75-12.03-3.76-10.35-26.48,20.13-29.49,22.14-2.3,1.53-4.77,1.05-5.57-1.48-1.13-3.56-1.55-7.14-1.69-10.74ZM120.22,274.48c-.16-9.63-1.83-19.67-2.83-28.22-.28-2.41-.85-2.97-3.2-2.7-5.3.61-10.59,1.24-15.9,1.73-4.53.42-9.07.66-13.6.99-3.1.23-3.52.66-3.98,3.84-.23,1.65-1.25,3.71-.6,4.82.72,1.24,2.95,1.58,4.49,2.39,6.71,3.54,13.46,8.15,19.01,13.65,6.18,6.12,9.73,13.42,14.68,20.42,1.56-5.19,2.03-10.97,1.94-16.91ZM83.54,228.44c.35-.52.56-.81.74-1.12,1.64-2.87,3.21-5.77,4.91-8.6,3.66-6.1,7.39-12.17,11.09-18.25.67-1.11.71-2.07-.09-3.24-6.01-8.77-17.25-24.3-29.02-25.46-.55-.05-1.11.03-1.66.05.1.56.12,1.16.33,1.68.58,1.43,1.22,2.83,1.87,4.23,6.73,14.43,9.46,29.75,10.8,45.44.12,1.46.43,2.9.68,4.34.04.24.18.47.36.92ZM193.29,215.38c-2.78.2-5.61,1.41-7.55,3.67-6.96,8.14-8.52,21.67-11.14,31.71-.08.31.04.68.07,1.02.34-.06.71-.07,1.02-.2,11.75-5.13,22.79-13.56,26.18-26.49,1.77-6.77-3.3-10.08-8.58-9.71ZM87.53,234.48c1.33-.24,2.19-.47,3.06-.55,7.44-.66,14.88-1.3,22.32-1.93,1.21-.1,1.75-.45,1.28-1.81-2.96-8.69-5.71-17.15-9.63-25.46-.52-1.1-1.04-1.43-1.75-.12-3.15,5.79-6.34,11.55-9.47,17.34-2.02,3.74-3.95,7.52-5.88,11.3-.16.32.04.83.06,1.21ZM274.14,236.39c.06.01.11.03.17.04.06,1.03.11,2.06.18,3.08.27,3.67,1.12,4.26,4.55,3.54,3.31-.69,5.96-2.52,8.3-4.75,1.03-.98,1.99-2.53,2.08-3.88.1-1.48-5.06-4.99-6.79-5.03-1.76-.05-3.56-.18-5.29.06-.79.11-1.86.89-2.11,1.61-.59,1.7-.76,3.54-1.1,5.33ZM59.31,248.45c3.56.97,6.49,1.79,9.43,2.57,1.67.44,1.89-.56,2.09-1.91.23-1.54-.58-1.57-1.62-1.48-3.09.25-6.18.51-9.9.82Z"/>
      <path class="cls-1" d="M235.03,78.62c-.75-.03-2.71,14.78-2.87,15.89-1.38,9.43-.96,19.55-3.43,28.76-.43,1.59-2.01,3-3.33,4.2-1.7,1.54-3.42.84-3.66-1.49-.21-2.04.02-4.11.03-6.17.05-14.31-1.59-27.4-6.89-40.81-4.63-11.73-11.16-22.42-16.9-33.6-2.09-4.07-2.85-8.53-.99-12.99,2.11-5.09,8.32-5.45,13.02-6.06,14.06-1.81,28.62-1.01,42.68.48,14.49,1.55,28.64,4.55,42.63,8.52,3.11.88,6.11,2.56,8.8,4.4,2.45,1.67,5.07,3.97,4.15,7.38-1.77,6.6-9.27,11.25-15,14.02-6.08,2.95-12.47,5.2-18.76,7.64-3.72,1.44-7.42,2.92-11.1,4.44-3.44,1.42-7.19,2.61-10.22,4.78,4.03.79,8.21.92,12.29,1.28,4.35.38,8.72.71,13.07,1.15,3.83.38,7.78.73,11.34,2.29,3.92,1.72,7.83,5.58,7.36,10.21-.15,1.52-.73,2.94-.92,4.45.02-.18,2.57-1.94,2.82-2.16,1.18-1.04,2.34-2.12,3.46-3.22,4.47-4.36,8.52-9.18,12.68-13.83,2.79-3.12,5.56-6.26,8.28-9.45,1.36-1.59,2.76-3.16,4.05-4.8,1.06-1.36,1.46-3.2,2.1-4.81,4.17-10.47,9.88-20.29,16.71-29.25.79-1.04,1.63-2.08,2.74-2.75,2.38-1.43,6.14-.22,8.21,1.3,3.19,2.33,3.47,6.41,2.52,10-2.14,8.12-8.25,16.27-13.44,22.7-2.38,2.95-4.87,5.58-6.82,8.85-2.02,3.38-3.76,6.93-5.42,10.5-1.23,2.65-2.42,5.31-3.65,7.95-1.89,4.05-3.78,8.09-5.64,12.16-.23.5-.25,1.1-.36,1.66.48-.24,1.02-.4,1.42-.72,4.07-3.24,8.18-6.76,12.02-10.37,2-1.89,3.96-3.82,5.87-5.81,1.58-1.65,3.07-3.83,5.04-5.04,1.78-1.09,8.88.09,9.91,1.87.43.73.2,2.14-.21,3.02-1.88,3.99-3.99,7.87-5.87,11.86-.57,1.22-.74,2.67-.94,4.03-.19,1.31.02,2.74,1.5,3.04,1.96.4,3.51-.61,4.85-1.94,3.64-3.63,6.91-7.64,9.74-11.92,2.86-4.32,5.05-9.18,8.16-13.33.72-1.16,1.48-1.53,2.86-1.4,3.41.32,5.89,1.94,7.38,4.95.37.74.33,1.89.06,2.71-1.66,5.02-3.71,9.52-4.07,14.9-.1,1.44.1,3.06,1.97,2.47,2.21-.69,4.42-1.42,6.61-2.17,1.07-.37,2.14-.74,3.21-1.11.75-.26,2.71-.57,3.2-1.17.38-.46.26-2.11.38-2.72.19-1.03.45-2.05.79-3.05,1.48-4.44,4.43-8.28,7.76-11.51,3.84-3.74,8.07-6.94,12.96-9.42,6.06-3.08,13.38,1.35,14.48,8.22.83,5.21-1.5,9.43-4.53,13.09-3.34,4.04-7.36,7.52-11.04,11.29-.4.41-.82,1.28-.64,1.66.26.55,1.01,1.07,1.64,1.22,12.83,3.02,24.03-2.16,35.84-6.39,1.6-.57,4.13-1.17,5.08-.38,1.61,1.33.71,3.74-.24,5.5-9,16.7-37.04,22.29-53.23,14.32-1.41-.69-2.69-1.82-3.77-2.98-.86-.93-1.43-1.06-2.57-.5-6.69,3.28-13.68,5.27-21.24,4.74-4.89-.34-8.4-2.55-10.63-7-2.02-4.02-.91-4.39-5.15-.86-3.66,3.04-7.32,6.14-11.29,8.73-2.29,1.5-5.03,2.99-8.07,2.04-2.86-.9-5.32-4.88-5.44-8.38-.04-1.14-.23-2.28-.36-3.43-.93.62-1.88,1.2-2.78,1.86-4.54,3.34-8.95,6.87-13.64,9.98-2.6,1.73-5.59,2.91-8.51,4.07-1.98.79-3.53-.1-4.52-1.96-2.64-4.96-1.87-10.42-.68-15.66.31-1.35.89-2.64,1.31-3.97.1-.33.07-.7.1-1.05-.3.18-.65.3-.91.54-2.68,2.41-5.25,4.94-8.03,7.24-5.54,4.58-10.94,9.37-16.83,13.46-8.7,6.04-17.59,11.84-26.86,16.98-8.75,4.85-19.07,11.06-29.12,12.43-6.14.83-5.37-8.26-4.9-12,.15-1.22,1.26-2.69,2.36-3.37,20.07-12.52,40.59-24.08,56.47-41.99,1.23-1.39-.49-1.63-1.59-1.83-1.75-.32-3.51-.56-5.27-.77-3.46-.4-6.94-.61-10.41-.83-7.43-.47-14.98-.98-22.16-3.08-4.06-1.19-6.06-3.85-6.28-8.06-.06-1.21-.27-2.4-.41-3.6-.11,0-.22,0-.33-.01ZM245.14,37.91c-1.34-.13-1.89.39-2.17,1.81-1.42,7.3-3,14.58-4.51,21.87-.66,3.22-1.3,6.44-1.9,9.67-.08.45.08.95.13,1.43.41-.25.86-.47,1.24-.77.86-.68,1.62-1.51,2.54-2.1,6.55-4.22,13.94-6.63,21.14-9.45,8-3.13,16-6.26,24-9.4.89,0,2.28-.89,3.12-1.22.89-.35,1.77-.73,2.66-1.08.42-.17.72-.61,1.08-.93-.34-.23-.67-.5-1.04-.67-5.53-2.53-11.5-3.74-17.45-4.87-9.57-1.82-19.17-3.1-28.84-4.29ZM225.15,37.22c-5.19.1-10.39.3-15.56.75-2.66.23-2.94.7-1.67,3.12,6.28,12,13.25,24.03,17.41,37.11.12.37.42.68.64,1.01.15-.39.37-.77.43-1.17.48-3.32.66-6.7,1.45-9.95,1.56-6.46,3.39-12.85,5.24-19.23.93-3.23,2.12-6.38,3.28-9.54.66-1.8-.11-2.25-1.72-2.23-3.16.03-6.33.06-9.49.12ZM424.33,80.37c-.09-2.33-2.68-1.79-4.12-1.08-2.99,1.48-5.58,4.65-7.34,7.42-1.31,2.07-1.97,3.63-1.73,6.1.04.4,3.91-1.26,4.26-1.56,1.7-1.43,3.23-3.03,4.7-4.69,1.29-1.45,2.89-2.81,3.79-4.56.26-.5.46-1.05.44-1.64ZM228.13,87.21c.95-4.75,1.74-9.13,2.71-13.47,1.93-8.71,3.96-17.4,5.93-26.1.09-.41,0-.86,0-1.29-.24.35-.58.66-.71,1.05-2.04,6.25-4.16,12.47-6.05,18.76-2.02,6.73-2.74,13.62-1.88,21.05Z"/>
      <path class="cls-1" d="M89.88,130.22c.78-5.06,1.59-10.19,2.33-15.32.15-1.05-.01-2.15-.03-3.22-.9.52-1.88.93-2.67,1.58-5.09,4.21-7.9,9.95-10.43,15.84-1.39,3.23-2.52,6.57-4,9.75-.78,1.69-1.93,3.26-3.16,4.67-.7.8-2.11,1.83-2.8,1.59-1.06-.37-2.21-1.61-2.53-2.71-1.54-5.25.94-10.54,2.34-15.57,1.91-6.87,3.88-13.73,5.9-20.57,5.17-17.52,10.57-34.97,16.89-52.11.22-.62.55-1.2.82-1.81.64-1.45,1.96-1.41,2.98-.91.49.24.85,1.61.65,2.29-4.82,16.31-10.66,32.79-14.07,49.45,1.98-.31,3.72-2.24,5.34-3.73,3.98-3.66,12.89-3.37,16.04,1.1.93,1.32,1.73,3.03,1.79,4.6.12,2.9-.35,5.82-.58,8.74-.16,1.97-.36,3.95-.5,5.92-.2,2.71-.38,5.42-.52,8.13-.03.62.19,1.26.29,1.89.51-.35,1.15-.6,1.51-1.07,1.88-2.43,3.79-4.86,5.48-7.43.64-.97.93-2.32.96-3.51.23-7.39,2.07-14.38,5.26-20.98.82-1.69,2.41-3.21,4-4.28,2.18-1.47,8.66.46,10.81,1.93,3.5,2.38,2.75,5.72,2.05,8.52-1.41,5.66-3.61,11.13-5.46,16.68-.43,1.28-.81,2.58-1.21,3.87,1.32-.33,2.75-.43,3.93-1.03,6.13-3.12,11.81-6.88,16.81-11.65,2.06-1.97,4.25-3.87,6.63-5.42,3.02-1.97,6.48-1.34,9.46-.02,3.47,1.54,3.69,4.38,1.29,7.55-3.45,4.57-7.92,8.04-12.3,11.58-4.09,3.31-8.24,6.62-12.67,9.44-5.04,3.2-10.46,5.79-16.73,5.27-1.36-.11-2.9-.28-4-.98-1.58-1-2.31-.31-3.3.74-2.61,2.75-5.18,5.56-8.01,8.07-2.73,2.41-8.03,4.78-11.36,2.68-2.96-1.87-4.46-4.91-5.27-8.11-.92-3.67-1.3-7.48-1.95-11.44Z"/>
      <path class="cls-1" d="M55.6,123.06c-1.75,5.1-3.63,10.14-5.71,15.09-.85,2.03-7.99,19.38-11.61,14.07-2.86-4.19-4.11-8.78-2.39-13.7,10.38-29.66,20.91-59.27,31.19-88.97.1-.28.16-.57.2-.86.09-.63.15-1.26.22-1.89-.62.06-1.27.02-1.85.21-11.81,3.78-23.36,8.27-34.58,13.53-5.23,2.45-10.23,5.4-15.32,8.16-.46.25-.78.74-1.17,1.12.53.35,1.03.93,1.6,1.02,1.15.17,2.35.06,3.53.11.65.03,1.35.06,1.93.3.38.16.6.71.9,1.09-.35.2-.69.45-1.06.61-2.88,1.25-5.78.8-8.62-.09-2.13-.67-2.55-3.6-.94-5.51,2.82-3.34,6.54-5.49,10.35-7.35,8.24-4.03,16.55-7.94,24.95-11.61,7.17-3.13,14.52-5.84,21.75-8.82.74-.3,1.47-1.12,1.78-1.87,1.16-2.76,1.5-5.56,1.54-8.67.06-4.21,1.25-8.57,2.74-12.57,1.84-4.93,4.42-9.6,6.81-14.31,1.4-2.77,6.52-2.88,8.13-.22.33.55.44,1.45.26,2.07-1.86,6.31-3.8,12.59-5.72,18.88-.79,2.6-1.63,5.18-2.31,7.8-.54,2.08,1.48,3.75,3.58,3.14,11.38-3.34,22.75-6.73,34.18-9.92,3.07-.86,6.3-1.19,9.48-1.54,1.81-.2,3.72.31,4.52,2.1.8,1.78-.26,3.33-1.33,4.82-2.58,3.59-6.5,5-10.36,6.36-6.43,2.27-12.88,4.54-19.46,6.32-6.28,1.7-12.72,2.88-19.32,2.11-.85-.1-1.66-.47-2.48-.75-2.38-.81-2.66-.63-3.42,1.79-8.06,25.47-13.3,52.53-22,77.94Z"/>
    </g>
  </g>
</svg>